<svg preserveAspectRatio="none" width="100%" height="100%" overflow="visible" style="display: block;" viewBox="0 0 23 15" fill="none" xmlns="http://www.w3.org/2000/svg">
<g id="Group">
<path id="Vector" d="M9.18264 6.41127C10.4458 5.80407 11.0962 4.90983 11.0942 3.48759C11.159 1.74015 10.1083 0.502711 8.44152 0.193831C7.24008 -0.140969 1.34232 0.0721509 0 0.0157509V14.0402H4.57584C5.55216 14.0118 7.11072 14.1066 8.05896 13.925C8.85936 13.7942 9.59736 13.5004 10.2259 13.0768C12.5849 11.483 12.1855 7.08567 9.18264 6.41127ZM3.08808 2.40471H5.97696C6.48144 2.40807 7.03056 2.46303 7.4508 2.72007C8.31432 3.15831 8.2896 4.79775 7.57152 5.28855C7.21272 5.55183 6.7596 5.68167 6.21264 5.68167C5.4528 5.68287 3.85584 5.68095 3.08808 5.68167V2.40471ZM8.47848 10.7068C8.0808 11.4734 7.19328 11.6488 6.38304 11.6517H3.08808V7.78983H6.44496C7.10952 7.78983 7.65 7.94271 8.05512 8.24991C8.66424 8.63415 8.84328 10.0151 8.47848 10.7068Z" fill="var(--fill-0, #475569)"/>
<path id="Vector_2" d="M22.5884 7.37367C21.0579 1.37895 12.5077 2.94519 12.6543 8.96991C12.6313 11.1002 13.6678 13.1445 15.6898 13.9185C17.2047 14.535 19.4847 14.4182 20.7963 13.5126C21.6133 12.9873 22.2123 12.1149 22.6071 10.8923H20.1507C19.6553 12.3621 17.1387 12.623 16.1453 11.6049C15.7261 11.1969 15.4546 10.4368 15.4546 9.63423H22.7823C22.8349 8.84655 22.771 8.09391 22.5884 7.37367ZM15.4546 7.87647C15.494 6.66543 16.4645 5.63535 17.7721 5.70447C18.457 5.70447 19.0186 5.90271 19.3498 6.26967C19.6827 6.63951 19.9261 7.16511 19.9925 7.87647H15.4546Z" fill="var(--fill-0, #475569)"/>
<path id="Vector_3" d="M20.569 0.956551H14.8841V2.34039H20.569V0.956551Z" fill="var(--fill-0, #475569)"/>
</g>
</svg>
