<svg preserveAspectRatio="none" width="100%" height="100%" overflow="visible" style="display: block;" viewBox="0 0 18 16" fill="none" xmlns="http://www.w3.org/2000/svg">
<g id="Icon" filter="url(#filter0_di_984_385)">
<path d="M13.03 8.89505C12.8614 8.7266 12.6466 8.61178 12.4128 8.56506L10.9708 8.27696C10.1807 8.11908 9.36036 8.22883 8.63962 8.58884L8.44794 8.68458C7.72719 9.04459 6.90689 9.15433 6.11672 8.99646L4.95005 8.76336C4.55403 8.68424 4.14463 8.80807 3.85905 9.09335M6.12799 2H10.9596L10.3556 2.60334V5.72354C10.3556 6.04357 10.4829 6.35049 10.7094 6.57679L13.7291 9.59348C14.4901 10.3536 13.9511 11.6534 12.875 11.6534H4.21253C3.13642 11.6534 2.5975 10.3536 3.35843 9.59347L6.37816 6.57679C6.60468 6.35049 6.73194 6.04357 6.73194 5.72354V2.60334L6.12799 2Z" stroke="var(--stroke-0, white)" stroke-width="2" stroke-linecap="round" stroke-linejoin="round" shape-rendering="crispEdges"/>
</g>
<defs>
<filter id="filter0_di_984_385" x="-1.19209e-07" y="0" width="17.0876" height="15.6534" filterUnits="userSpaceOnUse" color-interpolation-filters="sRGB">
<feFlood flood-opacity="0" result="BackgroundImageFix"/>
<feColorMatrix in="SourceAlpha" type="matrix" values="0 0 0 0 0 0 0 0 0 0 0 0 0 0 0 0 0 0 127 0" result="hardAlpha"/>
<feOffset dy="1"/>
<feGaussianBlur stdDeviation="1"/>
<feComposite in2="hardAlpha" operator="out"/>
<feColorMatrix type="matrix" values="0 0 0 0 0.360576 0 0 0 0 0.750252 0 0 0 0 0.941113 0 0 0 0.5 0"/>
<feBlend mode="normal" in2="BackgroundImageFix" result="effect1_dropShadow_984_385"/>
<feBlend mode="normal" in="SourceGraphic" in2="effect1_dropShadow_984_385" result="shape"/>
<feColorMatrix in="SourceAlpha" type="matrix" values="0 0 0 0 0 0 0 0 0 0 0 0 0 0 0 0 0 0 127 0" result="hardAlpha"/>
<feOffset dy="-0.4"/>
<feGaussianBlur stdDeviation="0.3"/>
<feComposite in2="hardAlpha" operator="arithmetic" k2="-1" k3="1"/>
<feColorMatrix type="matrix" values="0 0 0 0 0.333333 0 0 0 0 0.784314 0 0 0 0 0.67451 0 0 0 0.4 0"/>
<feBlend mode="normal" in2="shape" result="effect2_innerShadow_984_385"/>
</filter>
</defs>
</svg>
