<svg preserveAspectRatio="none" width="100%" height="100%" overflow="visible" style="display: block;" viewBox="0 0 23 23" fill="none" xmlns="http://www.w3.org/2000/svg">
<g id="Layer_2">
<path id="Vector" d="M21.115 0.0032097C17.6083 -0.0066303 4.67448 0.0099297 1.68504 0.0032097C0.7548 0.0032097 0 0.73497 0 1.63617V21.1676C0 22.069 0.7548 22.8001 1.68504 22.8001H21.115C22.0457 22.8001 22.8 22.069 22.8 21.1674V1.63617C22.8 0.73497 22.0457 0.0032097 21.115 0.0032097ZM6.92904 19.0813H3.51696V8.81793H6.9288V14.6307C6.93024 15.6932 6.92832 18.0034 6.92904 19.0813ZM5.2236 7.41705C4.07424 7.42929 3.31344 6.63657 3.31584 5.64393C3.31248 3.29505 7.14384 3.26865 7.15368 5.64417C7.15368 6.62889 6.41304 7.41705 5.2236 7.41705ZM19.2314 19.0813H15.8201V13.5913C15.8201 12.2115 15.3259 11.2705 14.0918 11.2705C12.8249 11.3146 12.1954 12.2974 12.229 13.3506V19.0815L8.81736 19.0818C8.81736 19.0818 8.86224 9.78129 8.8176 8.81865H12.2292L12.2064 10.3066C12.6554 9.60609 13.4638 8.57769 15.3041 8.57769C17.5486 8.57769 19.2317 10.0446 19.2317 13.197V19.0813H19.2314Z" fill="var(--fill-0, #F8FAFC)"/>
</g>
</svg>
