<svg preserveAspectRatio="none" width="100%" height="100%" overflow="visible" style="display: block;" viewBox="0 0 134 69" fill="none" xmlns="http://www.w3.org/2000/svg">
<g id="Group">
<path id="Vector" d="M7.36611 68.5319V36.3754H0V29.4054H23.152V36.3754H15.784V68.5337H7.36611V68.5319Z" fill="var(--fill-0, #2D2E35)"/>
<g id="Group_2">
<path id="Vector_2" d="M48.7556 48.9686C48.7556 62.0301 44.1371 69.0019 35.7769 69.0019C27.4744 69.0019 22.856 62.0319 22.856 48.9686C22.856 35.9054 27.4744 28.9354 35.7769 28.9354C44.1371 28.9354 48.7556 35.9054 48.7556 48.9686ZM31.5103 48.9686C31.5103 57.9305 32.6793 61.9722 35.7788 61.9722C38.8782 61.9722 40.0473 57.9305 40.0473 48.9686C40.0473 40.0068 38.8782 35.9651 35.7788 35.9651C32.6793 35.9651 31.5103 40.0068 31.5103 48.9686Z" fill="var(--fill-0, #2D2E35)"/>
<path id="Vector_3" d="M69.333 29.4036V61.5619H79.4467V68.5319H60.9728V29.4036H69.333Z" fill="var(--fill-0, #2D2E35)"/>
<path id="Vector_4" d="M103.049 57.1695L106.381 38.8951H114.157L106.791 68.5337H98.8402L91.4741 38.8951H99.4843L102.876 57.1695H103.049V57.1695Z" fill="var(--fill-0, #2D2E35)"/>
<path id="Vector_5" d="M126.743 58.4565L133.759 59.8031C132.94 65.4264 129.49 69 124.172 69C117.215 69 113.239 63.3188 113.239 53.7116C113.239 44.6322 117.039 38.4232 124.289 38.4232C130.896 38.4232 133.994 43.8712 133.994 50.899C133.994 52.1878 133.876 53.6519 133.644 55.4088H121.015C120.957 60.3868 122.009 63.0241 124.172 63.0241C125.926 63.026 126.568 60.9762 126.743 58.4565ZM126.626 50.9009C126.685 50.4905 126.685 50.0802 126.685 49.6718C126.685 46.861 126.158 44.3413 124.172 44.3413C122.126 44.3413 121.19 47.152 121.073 50.9009H126.626V50.9009Z" fill="var(--fill-0, #2D2E35)"/>
<g id="Group_3">
<path id="Vector_6" d="M89.6238 38.8932V68.5318H81.3809V38.8932H89.6238Z" fill="var(--fill-0, #2D2E35)"/>
<path id="Vector_7" d="M85.4353 9.25471C87.986 9.25471 90.0538 7.18297 90.0538 4.62736C90.0538 2.07174 87.986 0 85.4353 0C82.8846 0 80.8168 2.07174 80.8168 4.62736C80.8168 7.18297 82.8846 9.25471 85.4353 9.25471Z" fill="var(--fill-0, #2D2E35)"/>
</g>
</g>
</g>
</svg>
