<svg width="24" height="24" viewBox="0 0 24 24" fill="none" xmlns="http://www.w3.org/2000/svg">
<path d="M9.78268 11.2597C11.0458 10.6525 11.6962 9.75822 11.6943 8.33598C11.7591 6.58854 10.7084 5.3511 9.04156 5.04222C7.84012 4.70742 1.94236 4.92054 0.600037 4.86414V18.8885H5.17588C6.1522 18.8602 7.71076 18.955 8.659 18.7733C9.4594 18.6425 10.1974 18.3488 10.826 17.9252C13.1849 16.3313 12.7856 11.9341 9.78268 11.2597ZM3.68812 7.2531H6.577C7.08148 7.25646 7.6306 7.31142 8.05084 7.56846C8.91436 8.0067 8.88964 9.64614 8.17156 10.1369C7.81276 10.4002 7.35964 10.5301 6.81268 10.5301C6.05284 10.5313 4.45588 10.5293 3.68812 10.5301V7.2531ZM9.07852 15.5552C8.68084 16.3217 7.79332 16.4972 6.98308 16.5001H3.68812V12.6382H7.045C7.70956 12.6382 8.25004 12.7911 8.65516 13.0983C9.26428 13.4825 9.44332 14.8635 9.07852 15.5552Z" fill="#F8FAFC"/>
<path d="M23.1884 12.2221C21.6579 6.22739 13.1077 7.79363 13.2543 13.8183C13.2313 15.9486 14.2679 17.9929 16.2899 18.7669C17.8047 19.3835 20.0847 19.2666 21.3963 18.3611C22.2133 17.8357 22.8123 16.9633 23.2071 15.7407H20.7507C20.2554 17.2105 17.7387 17.4714 16.7454 16.4533C16.3261 16.0453 16.0547 15.2852 16.0547 14.4827H23.3823C23.4349 13.695 23.3711 12.9423 23.1884 12.2221ZM16.0547 12.7249C16.094 11.5139 17.0646 10.4838 18.3721 10.5529C19.0571 10.5529 19.6187 10.7511 19.9499 11.1181C20.2827 11.4879 20.5261 12.0135 20.5926 12.7249H16.0547Z" fill="#F8FAFC"/>
<path d="M21.169 5.80493H15.4842V7.18877H21.169V5.80493Z" fill="#F8FAFC"/>
</svg>
