<svg preserveAspectRatio="none" width="100%" height="100%" overflow="visible" style="display: block;" viewBox="0 0 22 15" fill="none" xmlns="http://www.w3.org/2000/svg">
<g id="Vector" filter="url(#filter0_di_1012_968)">
<path d="M18.0107 3.85931H3.44435C3.25468 3.85931 3.06686 3.82233 2.89162 3.75049C2.71639 3.67864 2.55716 3.57333 2.42304 3.44058C2.28892 3.30782 2.18253 3.15022 2.10994 2.97676C2.03736 2.80331 2 2.6174 2 2.42966C2 2.24191 2.03736 2.056 2.10994 1.88255C2.18253 1.7091 2.28892 1.55149 2.42304 1.41874C2.55716 1.28598 2.71639 1.18067 2.89162 1.10883C3.06686 1.03698 3.25468 1 3.44435 1H18.0107C18.3937 1 18.7611 1.15062 19.032 1.41874C19.3028 1.68685 19.455 2.05049 19.455 2.42966C19.455 2.80883 19.3028 3.17246 19.032 3.44058C18.7611 3.70869 18.3937 3.85931 18.0107 3.85931ZM12.4788 11.9798H3.45157C3.06851 11.9798 2.70113 11.8291 2.43026 11.561C2.15939 11.2929 2.00722 10.9293 2.00722 10.5501C2.00722 10.1709 2.15939 9.8073 2.43026 9.53919C2.70113 9.27108 3.06851 9.12045 3.45157 9.12045H12.4788C12.8618 9.12045 13.2292 9.27108 13.5001 9.53919C13.771 9.8073 13.9231 10.1709 13.9231 10.5501C13.9231 10.9293 13.771 11.2929 13.5001 11.561C13.2292 11.8291 12.8618 11.9798 12.4788 11.9798Z" fill="var(--fill-0, white)"/>
</g>
<defs>
<filter id="filter0_di_1012_968" x="0" y="0" width="21.455" height="14.9798" filterUnits="userSpaceOnUse" color-interpolation-filters="sRGB">
<feFlood flood-opacity="0" result="BackgroundImageFix"/>
<feColorMatrix in="SourceAlpha" type="matrix" values="0 0 0 0 0 0 0 0 0 0 0 0 0 0 0 0 0 0 127 0" result="hardAlpha"/>
<feOffset dy="1"/>
<feGaussianBlur stdDeviation="1"/>
<feComposite in2="hardAlpha" operator="out"/>
<feColorMatrix type="matrix" values="0 0 0 0 0.360576 0 0 0 0 0.750252 0 0 0 0 0.941113 0 0 0 0.5 0"/>
<feBlend mode="normal" in2="BackgroundImageFix" result="effect1_dropShadow_1012_968"/>
<feBlend mode="normal" in="SourceGraphic" in2="effect1_dropShadow_1012_968" result="shape"/>
<feColorMatrix in="SourceAlpha" type="matrix" values="0 0 0 0 0 0 0 0 0 0 0 0 0 0 0 0 0 0 127 0" result="hardAlpha"/>
<feOffset dy="-0.4"/>
<feGaussianBlur stdDeviation="0.3"/>
<feComposite in2="hardAlpha" operator="arithmetic" k2="-1" k3="1"/>
<feColorMatrix type="matrix" values="0 0 0 0 0.333333 0 0 0 0 0.784314 0 0 0 0 0.67451 0 0 0 0.4 0"/>
<feBlend mode="normal" in2="shape" result="effect2_innerShadow_1012_968"/>
</filter>
</defs>
</svg>
