<svg width="24" height="24" viewBox="0 0 24 24" fill="none" xmlns="http://www.w3.org/2000/svg">
<g clip-path="url(#clip0_978_1136)">
<path d="M21.715 0.603063C18.2084 0.593223 5.27452 0.609783 2.28508 0.603063C1.35484 0.603063 0.600037 1.33482 0.600037 2.23602V21.7675C0.600037 22.6689 1.35484 23.3999 2.28508 23.3999H21.715C22.6457 23.3999 23.4 22.6689 23.4 21.7672V2.23602C23.4 1.33482 22.6457 0.603063 21.715 0.603063ZM7.52908 19.6811H4.117V9.41778H7.52884V15.2306C7.53028 16.2931 7.52836 18.6033 7.52908 19.6811ZM5.82364 8.0169C4.67428 8.02914 3.91348 7.23642 3.91588 6.24378C3.91252 3.8949 7.74388 3.8685 7.75372 6.24402C7.75372 7.22874 7.01308 8.0169 5.82364 8.0169ZM19.8315 19.6811H16.4201V14.1911C16.4201 12.8114 15.926 11.8703 14.6919 11.8703C13.4249 11.9145 12.7954 12.8973 12.829 13.9504V19.6814L9.4174 19.6816C9.4174 19.6816 9.46228 10.3811 9.41764 9.4185H12.8292L12.8064 10.9065C13.2555 10.2059 14.0638 9.17754 15.9041 9.17754C18.1486 9.17754 19.8317 10.6444 19.8317 13.7968V19.6811H19.8315Z" fill="#F8FAFC"/>
</g>
<defs>
<clipPath id="clip0_978_1136">
<rect width="24" height="24" fill="white"/>
</clipPath>
</defs>
</svg>
