<svg preserveAspectRatio="none" width="100%" height="100%" overflow="visible" style="display: block;" viewBox="0 0 100 38" fill="none" xmlns="http://www.w3.org/2000/svg">
<path id="CN-logo" fill-rule="evenodd" clip-rule="evenodd" d="M0 27.8674C0 33.4626 4.4778 37.9992 10.0005 37.9992H44.9985C50.5212 37.9992 54.999 33.4626 54.999 27.8674L55.0077 10.1302C55.0077 8.73158 56.1264 7.59663 57.5076 7.59663C58.2431 7.59663 58.9032 7.91814 59.3601 8.43016L82.6385 34.731C86.38 38.848 92.7072 39.1117 96.7708 35.321C98.9264 33.3083 100.013 30.5585 100 27.8047V0H92.5057V27.8473C92.5104 28.537 92.2391 29.2274 91.698 29.7314C90.6833 30.6791 89.1021 30.6132 88.1667 29.5843L64.9011 3.32046C63.0707 1.28365 60.4328 0.0048239 57.5013 0.0048239C51.9786 0.0048239 47.5 4.54061 47.5 10.1374L47.4929 27.865C47.4929 29.2636 46.3734 30.3978 44.993 30.3978H9.99808C8.61603 30.3978 7.49658 29.2636 7.49658 27.865V10.1326C7.49658 8.73318 8.61603 7.59904 9.99808 7.59904H40.0019V0.0136664H10.0005C4.4778 0.0136664 0 4.55026 0 10.1462V27.8674Z" fill="var(--fill-0, #EC1B2E)"/>
</svg>
