<svg preserveAspectRatio="none" width="100%" height="100%" overflow="visible" style="display: block;" viewBox="0 0 134 69" fill="none" xmlns="http://www.w3.org/2000/svg">
<g id="Group">
<path id="Vector" d="M7.36611 68.5319V36.3754H0V29.4054H23.152V36.3754H15.784V68.5337H7.36611V68.5319Z" fill="var(--fill-0, #2D2E35)"/>
<g id="Group_2">
<path id="Vector_2" d="M48.7555 48.9686C48.7555 62.0301 44.137 69.0019 35.7768 69.0019C27.4744 69.0019 22.8559 62.0319 22.8559 48.9686C22.8559 35.9054 27.4744 28.9354 35.7768 28.9354C44.137 28.9354 48.7555 35.9054 48.7555 48.9686ZM31.5102 48.9686C31.5102 57.9305 32.6792 61.9722 35.7787 61.9722C38.8782 61.9722 40.0472 57.9305 40.0472 48.9686C40.0472 40.0068 38.8782 35.9651 35.7787 35.9651C32.6792 35.9651 31.5102 40.0068 31.5102 48.9686Z" fill="var(--fill-0, #2D2E35)"/>
<path id="Vector_3" d="M69.333 29.4036V61.5619H79.4467V68.5319H60.9728V29.4036H69.333Z" fill="var(--fill-0, #2D2E35)"/>
<path id="Vector_4" d="M103.049 57.1695L106.381 38.8951H114.157L106.791 68.5337H98.8402L91.474 38.8951H99.4842L102.876 57.1695H103.049V57.1695Z" fill="var(--fill-0, #2D2E35)"/>
<path id="Vector_5" d="M126.743 58.4565L133.759 59.8031C132.94 65.4264 129.49 69 124.172 69C117.215 69 113.239 63.3189 113.239 53.7116C113.239 44.6322 117.039 38.4233 124.289 38.4233C130.896 38.4233 133.993 43.8713 133.993 50.899C133.993 52.1878 133.876 53.6519 133.643 55.4089H121.015C120.957 60.3869 122.009 63.0242 124.172 63.0242C125.925 63.026 126.568 60.9763 126.743 58.4565ZM126.625 50.9009C126.685 50.4906 126.685 50.0803 126.685 49.6718C126.685 46.8611 126.158 44.3413 124.172 44.3413C122.126 44.3413 121.19 47.152 121.072 50.9009H126.625V50.9009Z" fill="var(--fill-0, #2D2E35)"/>
<g id="Group_3">
<path id="Vector_6" d="M89.6236 38.8933V68.5318H81.3807V38.8933H89.6236Z" fill="var(--fill-0, #2D2E35)"/>
<path id="Vector_7" d="M85.4353 9.25471C87.986 9.25471 90.0537 7.18297 90.0537 4.62736C90.0537 2.07174 87.986 0 85.4353 0C82.8845 0 80.8168 2.07174 80.8168 4.62736C80.8168 7.18297 82.8845 9.25471 85.4353 9.25471Z" fill="var(--fill-0, #2D2E35)"/>
</g>
</g>
</g>
</svg>
